# xmcd
#
# Track frame offsets: 
#        150
#        14096
#        33386
#        59753
#        83087
#        103429
#        121016
#        144333
#        165325
#        192966
#        205647
#        222298
#        235363
#        255210
#        275755
#        290598
#        309999
#
# Disc length: 4387 seconds
#
# Revision: 0
# Processed by: cddbd v1.5.2PL0 Copyright (c) Steve Scherf et al.
# Submitted via: ExactAudioCopy v0.95a4
#
DISCID=f6112111
DTITLE=Various Artist - 中国民歌珍藏 I
DYEAR=2002
DGENRE=
TTITLE0=美丽新世界(高枫)
TTITLE1=大中国(高枫)
TTITLE2=向往神鹰(亚东)
TTITLE3=天堂(腾格尔)
TTITLE4=为了谁(祖海)
TTITLE5=山歌好比春江水(斯琴格日乐)
TTITLE6=神奇九寨(容中尔甲)
TTITLE7=草原之夜(腾格尔)
TTITLE8=春天的故事(董文华)
TTITLE9=还日子(宋祖英)
TTITLE10=天亮了(韩红)
TTITLE11=在希望的田野上(彭丽媛)
TTITLE12=乌苏里船歌(郭颂)
TTITLE13=英雄赞歌(马玉涛)
TTITLE14=今夜无眠(周冰倩)
TTITLE15=纤夫的爱(于文华/尹相杰)
TTITLE16=中华民谣(孙浩)
EXTD=
EXTT0=
EXTT1=
EXTT2=
EXTT3=
EXTT4=
EXTT5=
EXTT6=
EXTT7=
EXTT8=
EXTT9=
EXTT10=
EXTT11=
EXTT12=
EXTT13=
EXTT14=
EXTT15=
EXTT16=
PLAYORDER=
